PathFileType	4	(X/Y/Z)	C:\Users\°ÂÌØÂü\Desktop\20210112\bx_y_0_901-Unnamed.trc
DataRate	CameraRate	NumFrames	NumMarkers	Units	OrigDataRate	OrigDataStartFrame	OrigNumFrames
50.00	50.00	       4	0	mm	50.00	115	       457
Frame#	Time	
		

115	2.280	-534.07520	-71.66357	1502.68860	-572.47284	286.39291	1505.97314	-529.06891	106.12397	1369.95422	-666.14996	-4.13888	1037.98523	-658.25635	213.49931	1057.50916	-716.54016	281.20981	877.94043	-657.13690	-7.69240	803.05511	-655.29736	215.11742	815.60120	-755.18909	278.40796	744.54486	-777.70343	250.83629	634.17273	-733.04602	144.51668	570.76257	-772.37018	246.28012	571.72821	-704.68866	18.51126	523.15137	-805.05151	256.86267	496.39163	-713.65509	206.83316	534.71832	-762.72601	-49.60743	713.19427	-664.12140	-67.26591	162.78902	-714.99542	153.60385	218.10593	-773.47595	223.34438	203.44673	-882.69598	295.97830	144.47495	-675.21521	56.47750	158.08716	-603.72839	20.16508	166.39035	-675.50793	173.19325	158.25386	-595.67737	223.31241	173.79044	-667.91003	299.70959	159.09898	-630.12799	308.06763	162.18106	-562.26880	262.12134	166.57439	-527.76093	304.00409	146.41100	-389.36966	118.62830	1763.47412	-517.93823	-72.83348	142.89241	-797.03705	173.15604	183.19231	-768.40387	-6.10316	205.15372	-795.35095	54.49151	174.06581	-861.54742	93.69747	1076.75330	-796.31866	-35.22579	483.06946	-560.60254	-39.93949	163.66168	-875.51483	-78.58858	140.32259				-720.12811	76.90694	217.79274	-755.20667	-29.15900	612.26245	-759.78687	-25.45975	565.44293	-622.52039	-78.24639	158.61313	-732.29193	-68.84019	857.13007	-732.32495	79.32081	570.59094	
116	2.300	-529.09161	-72.25172	1498.74927	-566.82800	285.72733	1502.73633				-667.89508	-3.90843	1037.76086	-660.37000	213.17827	1057.24731	-718.87457	281.06778	877.72046	-658.79767	-7.77360	802.81635	-657.24042	215.04266	815.97021	-756.87622	278.48642	744.58228	-778.73071	250.76579	634.01654	-733.65503	144.59303	570.58807	-773.81091	246.81952	572.36877	-705.63794	18.90681	523.23114	-805.62781	257.39157	496.21652	-714.04480	207.07330	535.07214	-764.10052	-49.95939	713.39984	-664.09991	-67.17516	162.88615	-714.95801	153.63394	217.98503	-773.44623	223.05606	203.35611	-882.59009	295.93652	144.44270	-675.06622	56.36357	158.40659	-603.81433	20.07722	166.19690	-675.70599	173.32318	158.24780	-595.73993	223.32616	173.71992	-667.85919	299.70584	159.01683	-630.14044	307.97910	162.17764	-562.39392	261.99329	166.35970	-527.92975	303.93491	146.32227	-381.10635	117.59654	1757.54712	-517.99005	-72.58737	142.70663	-797.18903	173.12338	183.14059	-769.10193	-6.06782	204.72382	-795.30139	54.71211	173.99722	-863.09674	93.53719	1077.21802	-797.34296	-35.18581	482.88391	-560.50867	-39.91639	163.70851	-875.74829	-78.54257	140.56030				-720.07086	76.69175	218.13774	-756.49445	-29.10835	612.26135	-760.70062	-25.46226	565.52264	-622.44727	-78.19692	158.69090	-734.09711	-68.94296	856.68091	-733.56592	79.33040	570.50391	
117	2.320	-524.21973	-72.41925	1494.05017	-561.86584	285.40588	1499.08264				-670.08575	-4.27243	1037.33081	-661.94629	213.86577	1056.94092	-720.34302	280.83020	877.81171	-660.78430	-8.02455	802.92328	-659.37427	215.02971	815.59570	-758.68726	278.32098	744.46649	-779.90094	250.83925	633.68494	-734.47070	144.91373	570.47083	-774.54791	246.96164	572.04852	-706.76971	18.65915	523.00952	-806.68945	257.57129	495.83340	-714.98639	207.21004	535.30109	-765.79199	-49.60667	712.95911	-663.92871	-67.14838	162.54158	-715.61432	153.68631	218.31459	-773.75275	223.29659	203.37622	-882.56689	296.15085	144.56075	-674.97479	56.28097	158.82199	-603.71179	19.94727	166.37146	-675.60669	173.29076	158.17319	-595.79321	223.04428	173.72493	-667.85919	299.70584	159.01683	-630.31421	308.02414	162.23444	-562.23517	261.78995	166.42940	-527.81665	303.87335	146.38129	-372.70227	116.89433	1751.26892	-517.90991	-72.52629	142.66797	-797.28815	173.20325	183.30576	-769.20624	-6.01104	204.84601	-795.44141	54.54636	173.96855	-864.93451	93.75020	1077.38538	-798.19159	-35.43848	482.64316	-560.60382	-39.80075	163.65453	-875.97748	-78.88188	141.21204				-720.59839	76.86862	218.27316	-757.82111	-29.57631	612.38312	-761.65466	-25.60979	565.23761	-622.34186	-78.05801	158.61006	-736.41736	-69.15629	856.71393	-734.88721	79.37740	570.78699	
118	2.340	-519.22064	-72.80107	1488.97485	-556.01074	285.35022	1495.54236				-672.02985	-4.58546	1036.87512	-663.65515	213.43686	1056.26416	-722.75397	281.01578	877.39240	-662.75793	-8.07696	802.93933	-660.85919	215.64470	815.48883	-760.47803	278.62689	744.20923	-780.85657	251.26628	633.67969	-735.64722	144.90611	570.41040	-775.39777	246.88130	571.94885	-707.39209	18.43941	523.45129	-807.21411	257.77170	495.98013	-716.07831	207.02606	535.01923	-768.12939	-49.74406	712.98138	-664.17267	-67.28688	162.75760	-715.33350	153.89383	218.11543	-773.82068	223.46964	203.22897	-882.67389	296.10397	144.50414	-674.95532	56.11386	158.64319	-603.85425	20.09178	166.20232	-675.90247	173.58763	158.41690	-595.80035	223.29361	173.59010	-667.85919	299.70584	159.01683	-630.16278	307.86853	162.24017	-562.23517	261.78995	166.42940	-528.11487	303.83691	146.00343	-364.17966	115.62585	1744.55786	-517.86438	-72.46153	142.95538	-797.26172	173.35155	183.31964	-769.15955	-6.09125	204.56987	-795.34503	54.58892	174.11124	-867.39246	93.52287	1077.74744	-799.10748	-35.70955	482.50427	-560.38501	-39.63176	163.68785	-875.97748	-78.88188	141.21204				-720.63586	76.77426	218.60283	-758.98181	-29.23740	611.86902	-762.77722	-25.52431	565.10083	-622.37506	-78.24837	158.72028	-738.34790	-69.03826	856.59210	-735.42450	79.11985	570.61774	
